<?xml version="1.0" standalone="no"?>
<!DOCTYPE svg PUBLIC "-//W3C//DTD SVG 20010904//EN"
 "http://www.w3.org/TR/2001/REC-SVG-20010904/DTD/svg10.dtd">
<svg version="1.0" xmlns="http://www.w3.org/2000/svg"
 width="512.000000pt" height="512.000000pt" viewBox="0 0 512.000000 512.000000"
 preserveAspectRatio="xMidYMid meet">
<metadata>
Created by potrace 1.14, written by Peter Selinger 2001-2017
</metadata>
<g transform="translate(0.000000,512.000000) scale(0.100000,-0.100000)"
fill="#000000" stroke="none">
<path d="M797 4719 l-22 -17 -1 -1749 c-1 -1505 0 -1751 13 -1771 8 -13 33
-42 56 -66 54 -55 579 -595 645 -662 27 -29 58 -56 68 -61 11 -6 563 -9 1386
-9 1299 1 1368 2 1385 19 17 17 18 102 19 1772 l1 1754 -66 69 c-36 39 -179
186 -317 328 -138 143 -280 289 -315 325 -35 36 -73 71 -84 76 -14 7 -462 11
-1383 10 -1290 0 -1364 -1 -1385 -18z m2679 -471 c2 -337 3 -369 20 -385 16
-16 45 -18 368 -17 193 0 353 -3 356 -7 3 -4 5 -756 5 -1671 l0 -1663 -1290 0
-1290 0 -2 222 c-2 231 -8 275 -48 353 -43 84 -149 164 -245 186 -19 4 -129 8
-245 8 l-210 2 -1 1664 c0 916 1 1667 2 1670 2 4 582 6 1291 5 l1288 0 1 -367z
m546 -155 c85 -87 115 -123 102 -124 -11 0 -131 -1 -269 -2 l-250 -1 -2 280
-3 279 151 -155 c83 -85 205 -210 271 -277z m-2660 -2957 c56 -24 108 -75 134
-131 22 -47 24 -62 24 -230 l0 -180 -132 135 c-72 74 -191 196 -264 271 -74
75 -134 140 -134 145 0 5 75 8 167 7 127 -1 177 -5 205 -17z"/>
<path d="M1424 3675 c-24 -24 -23 -65 3 -87 12 -9 276 -12 1210 -12 l1196 0
18 23 c24 29 24 43 0 72 l-19 24 -1193 1 -1193 1 -22 -22z"/>
<path d="M1427 3142 c-30 -33 -22 -86 16 -98 12 -4 554 -7 1205 -7 1068 0
1185 2 1199 16 19 19 21 73 4 90 -9 9 -285 13 -1210 14 -1129 3 -1199 2 -1214
-15z"/>
<path d="M1426 2604 c-9 -8 -17 -20 -17 -25 -1 -5 -2 -15 -3 -21 -1 -7 7 -23
18 -35 l19 -23 1194 0 1193 0 21 21 c24 24 20 65 -8 87 -13 9 -271 12 -1209
12 -1071 0 -1194 -2 -1208 -16z"/>
<path d="M1469 2079 c-46 -7 -56 -14 -62 -45 -3 -20 2 -34 19 -51 l23 -23
1190 0 c1286 0 1209 -3 1226 51 10 30 -20 69 -53 70 -156 4 -2318 3 -2343 -2z"/>
<path d="M1449 1540 c-28 -7 -49 -43 -42 -71 13 -47 1 -47 804 -45 717 1 758
2 777 19 23 21 23 61 -2 85 -15 15 -82 17 -765 17 -412 0 -760 -2 -772 -5z"/>
</g>
</svg>
